<?xml version="1.0" encoding="UTF-8" standalone="no"?>
<!-- Created with Inkscape (http://www.inkscape.org/) -->

<svg
   xmlns:dc="http://purl.org/dc/elements/1.1/"
   xmlns:cc="http://creativecommons.org/ns#"
   xmlns:rdf="http://www.w3.org/1999/02/22-rdf-syntax-ns#"
   xmlns:svg="http://www.w3.org/2000/svg"
   xmlns="http://www.w3.org/2000/svg"
   xmlns:sodipodi="http://sodipodi.sourceforge.net/DTD/sodipodi-0.dtd"
   xmlns:inkscape="http://www.inkscape.org/namespaces/inkscape"
   width="600"
   height="215"
   viewBox="0 0 600.00005 214.99998"
   id="svg2"
   version="1.1"
   inkscape:version="0.91 r13725"
   sodipodi:docname="logoiebe.svg">
  <defs
     id="defs4" />
  <sodipodi:namedview
     id="base"
     pagecolor="#ffffff"
     bordercolor="#666666"
     borderopacity="1.0"
     inkscape:pageopacity="0.0"
     inkscape:pageshadow="2"
     inkscape:zoom="1"
     inkscape:cx="251.53856"
     inkscape:cy="200"
     inkscape:document-units="px"
     inkscape:current-layer="layer1"
     showgrid="false"
     units="px"
     inkscape:window-width="1436"
     inkscape:window-height="851"
     inkscape:window-x="2"
     inkscape:window-y="95"
     inkscape:window-maximized="0" />
  <metadata
     id="metadata7">
    <rdf:RDF>
      <cc:Work
         rdf:about="">
        <dc:format>image/svg+xml</dc:format>
        <dc:type
           rdf:resource="http://purl.org/dc/dcmitype/StillImage" />
        <dc:title></dc:title>
      </cc:Work>
    </rdf:RDF>
  </metadata>
  <g
     inkscape:label="Capa 1"
     inkscape:groupmode="layer"
     id="layer1"
     transform="translate(0,-837.36233)">
    <g
       style="font-style:normal;font-variant:normal;font-weight:normal;font-stretch:normal;font-size:170.27035522px;line-height:125%;font-family:'Microsoft Yi Baiti';-inkscape-font-specification:'Microsoft Yi Baiti, Normal';text-align:start;letter-spacing:0px;word-spacing:0px;writing-mode:lr-tb;text-anchor:start;fill:#ffffff;fill-opacity:1;stroke:#ffffff;stroke-width:9.00012398;stroke-linecap:butt;stroke-linejoin:miter;stroke-miterlimit:4;stroke-dasharray:none;stroke-opacity:1"
       id="text4906"
       transform="matrix(2.1215265,0,0,2.1215265,-80.812878,-826.93168)">
      <path
         d="m 51.10822,881.01367 -6.651186,0 0,-91.0381 6.651186,0 0,91.0381 z"
         style="fill:#ffffff;stroke:#ffffff;stroke-width:9.00012398;stroke-miterlimit:4;stroke-dasharray:none;stroke-opacity:1"
         id="path4911"
         inkscape:connector-curvature="0" />
      <path
         d="m 143.39342,881.01367 -65.763596,0 0,-91.0381 63.518826,0 0,6.65118 -56.86764,0 0,33.67163 53.29263,0 0,6.65119 -53.29263,0 0,37.41292 59.11241,0 0,6.65118 z"
         style="fill:#ffffff;stroke:#ffffff;stroke-width:9.00012398;stroke-miterlimit:4;stroke-dasharray:none;stroke-opacity:1"
         id="path4913"
         inkscape:connector-curvature="0" />
      <path
         d="m 230.10826,855.48975 q 0,12.38783 -8.39712,18.95588 -8.31399,6.56804 -24.52625,6.56804 l -33.08965,0 0,-91.0381 32.92337,0 q 13.71807,0 20.95123,5.23781 7.31631,5.15466 7.31631,16.54482 0,3.15931 -0.66512,6.56805 -0.58198,3.32559 -2.24477,6.23548 -1.6628,2.9099 -4.57269,5.23781 -2.9099,2.24478 -7.48259,3.24245 6.40177,0.58198 10.2262,2.82676 3.90757,2.16163 5.98607,5.32095 2.16163,3.15931 2.82675,6.98374 0.74826,3.74129 0.74826,7.31631 z m -59.36183,18.87274 26.35532,0 q 25.77334,0 25.77334,-18.87274 0,-4.90525 -1.33023,-8.48027 -1.33024,-3.57501 -4.57269,-5.81978 -3.15932,-2.32792 -8.48026,-3.40874 -5.23781,-1.16395 -13.21924,-1.16395 l -24.52624,0 0,37.74548 z m 0,-44.39667 24.4431,0 q 12.13842,0 17.87507,-3.90757 5.73664,-3.90757 5.73664,-13.13609 0,-8.31398 -5.32095,-12.3047 -5.32094,-4.07385 -17.04366,-4.07385 l -25.6902,0.0831 0,33.33907 z"
         style="fill:#ffffff;stroke:#ffffff;stroke-width:9.00012398;stroke-miterlimit:4;stroke-dasharray:none;stroke-opacity:1"
         id="path4915"
         inkscape:connector-curvature="0" />
      <path
         d="m 316.32425,881.01367 -65.7636,0 0,-91.0381 63.51882,0 0,6.65118 -56.86764,0 0,33.67163 53.29263,0 0,6.65119 -53.29263,0 0,37.41292 59.11242,0 0,6.65118 z"
         style="fill:#ffffff;stroke:#ffffff;stroke-width:9.00012398;stroke-miterlimit:4;stroke-dasharray:none;stroke-opacity:1"
         id="path4917"
         inkscape:connector-curvature="0" />
    </g>
  </g>
</svg>
